<svg xmlns="http://www.w3.org/2000/svg" xmlns:xlink="http://www.w3.org/1999/xlink" width="400" zoomAndPan="magnify" viewBox="0 0 300 299.999988" height="400" preserveAspectRatio="xMidYMid meet" version="1.0"><defs><clipPath id="ce5cdd0b22"><path d="M 23 47.542969 L 277 47.542969 L 277 113 L 23 113 Z M 23 47.542969 " clip-rule="nonzero"/></clipPath><clipPath id="77f5dbac66"><path d="M 1.316406 117 L 298.316406 117 L 298.316406 180 L 1.316406 180 Z M 1.316406 117 " clip-rule="nonzero"/></clipPath><clipPath id="fbc6203e6d"><path d="M 1.316406 184 L 298.316406 184 L 298.316406 252.292969 L 1.316406 252.292969 Z M 1.316406 184 " clip-rule="nonzero"/></clipPath></defs><path fill="#ceb290" d="M 40.496094 112.621094 L 121.71875 112.621094 L 114.691406 105.605469 C 114.234375 105.148438 113.980469 104.527344 113.980469 103.878906 C 113.980469 103.230469 114.234375 102.613281 114.691406 102.152344 L 125.171875 91.6875 L 125.171875 81.164062 L 40.496094 81.164062 Z M 40.496094 112.621094 " fill-opacity="1" fill-rule="nonzero"/><path fill="#ceb290" d="M 148.277344 68.617188 C 149.230469 67.664062 150.765625 67.664062 151.71875 68.617188 L 169.949219 86.820312 L 169.949219 78.726562 C 169.949219 77.378906 171.042969 76.289062 172.386719 76.289062 L 200.734375 76.289062 L 200.734375 61.597656 L 99.265625 61.597656 L 99.265625 76.285156 L 127.613281 76.285156 C 128.957031 76.285156 130.046875 77.378906 130.046875 78.722656 L 130.046875 86.820312 Z M 148.277344 68.617188 " fill-opacity="1" fill-rule="nonzero"/><g clip-path="url(#ce5cdd0b22)"><path fill="#ceb290" d="M 35.621094 78.726562 C 35.621094 77.378906 36.714844 76.289062 38.058594 76.289062 L 94.390625 76.289062 L 94.390625 59.160156 C 94.390625 57.816406 95.480469 56.722656 96.828125 56.722656 L 203.171875 56.722656 C 204.515625 56.722656 205.609375 57.816406 205.609375 59.160156 L 205.609375 76.285156 L 261.9375 76.285156 C 263.285156 76.285156 264.375 77.378906 264.375 78.722656 L 264.375 112.621094 L 276.292969 112.621094 L 276.292969 61.894531 C 276.292969 54.023438 269.878906 47.625 261.996094 47.625 L 38 47.625 C 30.117188 47.625 23.703125 54.027344 23.703125 61.894531 L 23.703125 112.621094 L 35.621094 112.621094 Z M 35.621094 78.726562 " fill-opacity="1" fill-rule="nonzero"/></g><path fill="#ceb290" d="M 259.5 81.164062 L 174.824219 81.164062 L 174.824219 91.691406 L 185.300781 102.15625 C 185.761719 102.613281 186.015625 103.234375 186.015625 103.882812 C 186.015625 104.53125 185.761719 105.148438 185.300781 105.609375 L 178.273438 112.625 L 259.5 112.625 Z M 259.5 81.164062 " fill-opacity="1" fill-rule="nonzero"/><path fill="#ceb290" d="M 171.378906 112.621094 L 180.132812 103.878906 L 170.664062 94.421875 L 150 73.785156 L 129.335938 94.421875 L 119.867188 103.878906 L 128.621094 112.621094 Z M 171.378906 112.621094 " fill-opacity="1" fill-rule="nonzero"/><g clip-path="url(#77f5dbac66)"><path fill="#ceb290" d="M 280.1875 117.496094 L 19.808594 117.496094 C 9.613281 117.496094 1.316406 125.78125 1.316406 135.960938 L 1.316406 179.699219 L 298.679688 179.699219 L 298.679688 135.960938 C 298.679688 125.78125 290.386719 117.496094 280.1875 117.496094 Z M 280.1875 117.496094 " fill-opacity="1" fill-rule="nonzero"/></g><g clip-path="url(#fbc6203e6d)"><path fill="#ceb290" d="M 1.316406 252.367188 L 16.03125 252.367188 L 16.03125 226.855469 C 16.03125 225.507812 17.125 224.417969 18.46875 224.417969 L 281.527344 224.417969 C 282.875 224.417969 283.964844 225.507812 283.964844 226.855469 L 283.964844 252.367188 L 298.679688 252.367188 L 298.679688 184.574219 L 1.316406 184.574219 Z M 1.316406 252.367188 " fill-opacity="1" fill-rule="nonzero"/></g></svg>