<svg xmlns="http://www.w3.org/2000/svg" xmlns:xlink="http://www.w3.org/1999/xlink" width="400" zoomAndPan="magnify" viewBox="0 0 300 299.999988" height="400" preserveAspectRatio="xMidYMid meet" version="1.0"><defs><clipPath id="a27f7c5bb4"><path d="M 5.527344 25.226562 L 294.277344 25.226562 L 294.277344 274 L 5.527344 274 Z M 5.527344 25.226562 " clip-rule="nonzero"/></clipPath></defs><g clip-path="url(#a27f7c5bb4)"><path fill="#ceb290" d="M 71.609375 151.285156 C 71.601562 151.074219 71.59375 150.859375 71.585938 150.640625 C 69.308594 92.421875 119.082031 49.148438 170.21875 49.148438 C 221.359375 49.148438 270.160156 89.449219 270.160156 150.640625 C 270.160156 178.957031 257.011719 205.558594 239.679688 222.59375 C 219.550781 242.375 193.503906 250.351562 171.550781 250.351562 C 130.6875 250.351562 102.382812 221.472656 102.382812 221.472656 L 84.191406 238.570312 C 84.191406 238.570312 102.566406 254.894531 117.675781 261.882812 C 132.78125 268.875 137.207031 273.105469 170.21875 273.84375 C 198.578125 274.476562 225.042969 261.804688 242.253906 250.351562 C 290.703125 218.105469 294.464844 172.0625 294.464844 150.960938 C 294.464844 129.863281 290.257812 88.445312 249.917969 54.21875 C 231.050781 38.214844 206.511719 25.519531 167.894531 25.519531 C 131.878906 25.519531 104.488281 42.101562 86.621094 57.671875 C 44.367188 94.5 46.085938 150.960938 46.085938 150.960938 C 46.085938 150.960938 46.140625 151.074219 46.246094 151.285156 L 5.5 151.285156 L 60.390625 207.9375 L 117.050781 151.285156 Z M 71.609375 151.285156 " fill-opacity="1" fill-rule="evenodd"/></g><path fill="#ceb290" d="M 159.023438 98.535156 L 159.023438 164.714844 L 217.839844 200.4375 L 227.84375 186.515625 L 178.390625 156.554688 L 178.390625 98.535156 Z M 159.023438 98.535156 " fill-opacity="1" fill-rule="evenodd"/></svg>