<svg xmlns="http://www.w3.org/2000/svg" xmlns:xlink="http://www.w3.org/1999/xlink" width="400" zoomAndPan="magnify" viewBox="0 0 300 299.999988" height="400" preserveAspectRatio="xMidYMid meet" version="1.0"><defs><clipPath id="bc50ada1a4"><path d="M 29 19.925781 L 268 19.925781 L 268 217 L 29 217 Z M 29 19.925781 " clip-rule="nonzero"/></clipPath><clipPath id="e49c457bb5"><path d="M 32 153 L 71 153 L 71 280.175781 L 32 280.175781 Z M 32 153 " clip-rule="nonzero"/></clipPath><clipPath id="e3007d83d0"><path d="M 1.265625 170 L 39 170 L 39 264 L 1.265625 264 Z M 1.265625 170 " clip-rule="nonzero"/></clipPath></defs><g clip-path="url(#bc50ada1a4)"><path fill="#ceb290" d="M 267.246094 132.332031 L 267.246094 201.589844 C 267.246094 206.4375 267.402344 211.4375 266.777344 216.128906 C 266.777344 216.128906 267.089844 215.347656 267.089844 216.910156 L 258.335938 216.910156 C 261.308594 205.96875 262.558594 195.179688 262.558594 184.078125 L 262.558594 159.535156 C 262.558594 97 211.75 46.503906 149.214844 46.503906 C 86.679688 46.503906 34.304688 97 34.304688 159.535156 L 34.304688 184.078125 C 34.304688 195.179688 37.121094 205.96875 40.089844 216.910156 L 31.335938 216.910156 C 31.335938 215.347656 30.867188 216.441406 30.867188 216.285156 C 30.242188 211.4375 29.617188 206.4375 29.617188 201.589844 L 29.617188 132.332031 C 29.617188 69.796875 81.519531 19.925781 144.054688 19.925781 L 154.371094 19.925781 C 216.90625 19.925781 267.246094 69.796875 267.246094 132.332031 Z M 267.246094 132.332031 " fill-opacity="1" fill-rule="nonzero"/></g><g clip-path="url(#e49c457bb5)"><path fill="#ceb290" d="M 51.503906 280.070312 C 41.183594 280.070312 32.742188 271.628906 32.742188 261.308594 L 32.742188 172.511719 C 32.742188 162.191406 41.183594 153.75 51.503906 153.75 C 61.820312 153.75 70.261719 162.191406 70.261719 172.511719 L 70.261719 261.308594 C 70.261719 271.628906 61.820312 280.070312 51.503906 280.070312 Z M 51.503906 280.070312 " fill-opacity="1" fill-rule="nonzero"/></g><g clip-path="url(#e3007d83d0)"><path fill="#ceb290" d="M 20.234375 263.1875 C 9.917969 263.1875 1.476562 254.742188 1.476562 244.425781 L 1.476562 189.238281 C 1.476562 178.921875 9.917969 170.476562 20.234375 170.476562 C 30.554688 170.476562 38.996094 178.921875 38.996094 189.238281 L 38.996094 244.425781 C 38.996094 254.742188 30.554688 263.1875 20.234375 263.1875 Z M 20.234375 263.1875 " fill-opacity="1" fill-rule="nonzero"/></g><path fill="#ceb290" d="M 248.488281 275.847656 C 258.804688 275.847656 267.246094 267.40625 267.246094 257.089844 L 267.246094 168.289062 C 267.246094 157.972656 258.804688 149.527344 248.488281 149.527344 C 238.167969 149.527344 229.726562 157.972656 229.726562 168.289062 L 229.726562 257.089844 C 229.726562 267.40625 238.167969 275.847656 248.488281 275.847656 Z M 248.488281 275.847656 " fill-opacity="1" fill-rule="nonzero"/><path fill="#ceb290" d="M 279.753906 258.964844 C 290.074219 258.964844 298.515625 250.523438 298.515625 240.203125 L 298.515625 185.019531 C 298.515625 174.699219 290.074219 166.257812 279.753906 166.257812 C 269.4375 166.257812 260.996094 174.699219 260.996094 185.019531 L 260.996094 240.203125 C 260.996094 250.523438 269.4375 258.964844 279.753906 258.964844 Z M 279.753906 258.964844 " fill-opacity="1" fill-rule="nonzero"/></svg>