<svg xmlns="http://www.w3.org/2000/svg" xmlns:xlink="http://www.w3.org/1999/xlink" width="400" zoomAndPan="magnify" viewBox="0 0 300 299.999988" height="400" preserveAspectRatio="xMidYMid meet" version="1.0"><path fill="#ceb290" d="M 51.804688 142.46875 C 54.214844 142.265625 56.753906 142.476562 59.179688 142.476562 C 76.332031 142.492188 93.496094 142.65625 110.644531 142.460938 C 112.179688 142.445312 113.996094 142.226562 115.460938 142.699219 L 115.738281 142.792969 C 119.714844 144.136719 120.960938 150.179688 122.253906 153.617188 C 126.316406 164.410156 132.222656 183.597656 130.136719 195.300781 L 128.710938 203.378906 C 124.0625 222.941406 108.636719 236.085938 89.417969 240.035156 L 89.429688 287.011719 C 95.734375 286.988281 104.199219 285.101562 106.363281 292.148438 C 106.652344 294.535156 105.511719 297.507812 103.242188 298.578125 L 103.027344 298.671875 C 100.042969 299.992188 74.089844 299.285156 69.773438 299.277344 C 68.140625 299.273438 65.632812 299.5625 64.109375 299.011719 C 60.921875 297.867188 59.101562 293.804688 60.464844 290.691406 L 60.5625 290.472656 C 62.59375 285.679688 72.59375 287.007812 77.21875 286.996094 L 77.160156 239.972656 C 57.839844 236.464844 42.761719 223.699219 37.257812 204.414062 C 31.941406 185.777344 38.152344 167.175781 45.085938 149.910156 C 46.621094 146.089844 47.371094 143.578125 51.804688 142.46875 Z M 56.386719 154.699219 C 52.144531 163.453125 49.0625 175.59375 47.613281 185.046875 C 53.574219 182.484375 59.5 180.578125 65.859375 183.160156 L 67.878906 184.121094 C 72.796875 186.554688 76.375 191.246094 81.679688 192.929688 C 88.347656 195.046875 95 192.132812 100.296875 188.199219 C 106.480469 183.859375 109.929688 183.355469 117.65625 183.460938 C 116.777344 174.496094 113.296875 163.351562 109.449219 155.039062 C 107.835938 154.761719 106.007812 154.835938 104.375 154.808594 C 92.882812 154.621094 81.375 154.777344 69.882812 154.777344 C 65.445312 154.777344 60.808594 155.042969 56.386719 154.699219 Z M 56.386719 154.699219 " fill-opacity="1" fill-rule="nonzero"/><path fill="#ceb290" d="M 190.09375 0.578125 C 199.328125 0.00390625 208.980469 0.53125 218.273438 0.539062 C 227.996094 0.550781 229.613281 0.402344 229.632812 11.554688 C 229.640625 16.679688 230.746094 33.140625 228.917969 37.109375 C 227.652344 39.855469 228.367188 76.273438 228.410156 81.914062 C 228.519531 96.164062 233.207031 98.695312 243.027344 108.386719 C 246.6875 112.003906 249.769531 116.109375 252.761719 120.285156 C 262.6875 134.152344 267.597656 143.71875 267.667969 160.800781 C 267.816406 197.007812 267.675781 233.21875 267.679688 269.425781 C 267.683594 273.953125 268.074219 278.808594 267.34375 283.261719 C 266.300781 289.628906 260.671875 295.167969 254.554688 296.847656 C 248.75 298.4375 231.003906 297.582031 224.027344 297.582031 C 206.496094 297.582031 188.964844 297.59375 171.433594 297.59375 C 167.769531 297.59375 164.15625 297.710938 160.550781 296.929688 C 143.058594 293.136719 146.703125 268.550781 146.703125 255.285156 C 146.699219 223.402344 146.839844 191.519531 146.710938 159.636719 C 146.699219 157.113281 146.558594 154.679688 146.777344 152.152344 C 148.109375 136.984375 162.949219 116.285156 173.9375 105.777344 C 185.289062 94.917969 186.164062 93.59375 186.179688 77.535156 C 186.191406 67.261719 186.191406 56.988281 186.175781 46.714844 C 186.167969 43.90625 186.9375 39.398438 185.511719 36.882812 C 183.753906 33.785156 184.5625 17.925781 184.589844 13.753906 C 184.625 8.609375 183.015625 1.589844 190.09375 0.578125 Z M 205.527344 175.429688 C 193.734375 176.375 185.386719 183.597656 179.835938 193.441406 L 159.488281 193.707031 L 159.351562 234.636719 C 164.375 234.6875 169.410156 234.515625 174.4375 234.527344 C 179.394531 234.539062 179.777344 234.125 182.539062 238.339844 C 188.242188 247.042969 198.550781 251.683594 208.785156 251.242188 C 218.640625 250.8125 227.621094 245.820312 233.390625 237.789062 L 235.292969 234.929688 C 237.3125 234.261719 252.148438 234.074219 255.601562 234.464844 L 255.480469 194.070312 L 235.84375 193.402344 C 228.417969 181.941406 220.691406 174.335938 205.527344 175.429688 Z M 205.527344 175.429688 " fill-opacity="1" fill-rule="nonzero"/></svg>