<svg xmlns="http://www.w3.org/2000/svg" xmlns:xlink="http://www.w3.org/1999/xlink" width="400" zoomAndPan="magnify" viewBox="0 0 300 299.999988" height="400" preserveAspectRatio="xMidYMid meet" version="1.0"><defs><clipPath id="38732ecd48"><path d="M 11.5 215 L 288.25 215 L 288.25 248.535156 L 11.5 248.535156 Z M 11.5 215 " clip-rule="nonzero"/></clipPath><clipPath id="71f9a88a1d"><path d="M 56 51.285156 L 257 51.285156 L 257 202 L 56 202 Z M 56 51.285156 " clip-rule="nonzero"/></clipPath></defs><g clip-path="url(#38732ecd48)"><path fill="#ceb290" d="M 288.167969 248.855469 C 282.109375 248.855469 276.335938 247.488281 271.15625 245.128906 C 265.871094 242.726562 259.875 241.273438 253.617188 241.273438 C 247.335938 241.273438 241.34375 242.730469 236.054688 245.128906 C 230.878906 247.488281 225.105469 248.855469 219.046875 248.855469 C 212.988281 248.855469 207.191406 247.488281 202.035156 245.128906 C 196.660156 242.726562 190.667969 241.273438 184.472656 241.273438 C 178.214844 241.273438 172.222656 242.730469 166.910156 245.128906 C 161.753906 247.488281 155.894531 248.855469 149.902344 248.855469 C 143.84375 248.855469 138.070312 247.488281 132.847656 245.128906 C 127.535156 242.726562 121.566406 241.273438 115.351562 241.273438 C 109.09375 241.273438 103.101562 242.730469 97.789062 245.128906 C 92.632812 247.488281 86.773438 248.855469 80.710938 248.855469 C 74.742188 248.855469 68.882812 247.488281 63.726562 245.128906 C 58.414062 242.726562 52.421875 241.273438 46.164062 241.273438 C 39.949219 241.273438 33.980469 242.730469 28.667969 245.128906 C 23.425781 247.488281 17.652344 248.855469 11.589844 248.855469 L 11.589844 223.316406 C 17.648438 223.316406 23.421875 221.925781 28.667969 219.65625 C 33.980469 217.1875 39.949219 215.734375 46.164062 215.734375 C 52.421875 215.734375 58.414062 217.1875 63.726562 219.65625 C 68.882812 221.925781 74.742188 223.316406 80.710938 223.316406 C 86.769531 223.316406 92.632812 221.925781 97.789062 219.65625 C 103.101562 217.1875 109.09375 215.734375 115.351562 215.734375 C 121.566406 215.734375 127.535156 217.1875 132.847656 219.65625 C 138.070312 221.925781 143.839844 223.316406 149.902344 223.316406 C 155.894531 223.316406 161.753906 221.925781 166.910156 219.65625 C 172.222656 217.1875 178.214844 215.734375 184.472656 215.734375 C 190.664062 215.734375 196.65625 217.1875 202.035156 219.65625 C 207.191406 221.925781 212.988281 223.316406 219.046875 223.316406 C 225.105469 223.316406 230.878906 221.925781 236.054688 219.65625 C 241.34375 217.1875 247.335938 215.734375 253.617188 215.734375 C 259.875 215.734375 265.871094 217.1875 271.15625 219.65625 C 276.335938 221.925781 282.109375 223.316406 288.167969 223.316406 Z M 288.167969 248.855469 " fill-opacity="1" fill-rule="nonzero"/></g><path fill="#ceb290" d="M 248.105469 176.625 C 266.265625 176.625 281.003906 161.820312 281.003906 143.644531 C 281.003906 125.464844 266.261719 110.722656 248.105469 110.722656 C 229.90625 110.722656 215.1875 125.464844 215.1875 143.644531 C 215.1875 161.820312 228.605469 176.625 248.105469 176.625 Z M 248.105469 176.625 " fill-opacity="1" fill-rule="nonzero"/><g clip-path="url(#71f9a88a1d)"><path fill="#ceb290" d="M 56.476562 195.160156 C 59.03125 195.777344 61.433594 196.65625 63.726562 197.691406 C 68.878906 200.027344 74.742188 201.414062 80.710938 201.414062 C 86.769531 201.414062 92.632812 200.027344 97.789062 197.691406 C 103.101562 195.289062 109.09375 193.769531 115.351562 193.769531 C 121.566406 193.769531 127.535156 195.289062 132.847656 197.691406 C 138.070312 200.027344 143.839844 201.414062 149.902344 201.414062 C 155.894531 201.414062 161.753906 200.027344 166.910156 197.691406 C 172.222656 195.289062 178.214844 193.769531 184.472656 193.769531 C 190.664062 193.769531 196.65625 195.289062 202.035156 197.691406 C 207.191406 200.027344 212.988281 201.414062 219.046875 201.414062 C 223.449219 201.414062 227.703125 200.664062 231.714844 199.410156 L 176.824219 100.347656 L 240.65625 88.691406 C 250.023438 86.90625 256.832031 79.546875 256.832031 70.117188 C 256.832031 59.714844 248.367188 51.386719 238.035156 51.386719 C 237.285156 51.386719 236.601562 51.386719 235.898438 51.449219 L 137.292969 69.40625 C 130.375 70.992188 121.210938 81.128906 126.429688 93.578125 C 126.71875 94.261719 126.980469 94.902344 127.269531 95.582031 L 153.003906 142.054688 Z M 56.476562 195.160156 " fill-opacity="1" fill-rule="nonzero"/></g></svg>